<svg xmlns="http://www.w3.org/2000/svg" width="800" height="600" viewBox="0 0 800 600" role="img" aria-label="Ilustración: el nuevo sitio construido con Claude, Figma, Git, Render, HTML y CSS">
  <title>Ilustración: el nuevo sitio construido con Claude, Figma, Git, Render, HTML y CSS</title>
  <defs>
    <linearGradient id="bg" x1="0" y1="0" x2="1" y2="1">
      <stop offset="0" stop-color="#0b1330"/><stop offset="1" stop-color="#060a1c"/>
    </linearGradient>
    <pattern id="grid" width="32" height="32" patternUnits="userSpaceOnUse">
      <path d="M32 0H0V32" fill="none" stroke="#1b2a55" stroke-width="1"/>
    </pattern>
    <radialGradient id="glow" cx="0.5" cy="0.5" r="0.5">
      <stop offset="0" stop-color="#6d5dfc" stop-opacity="0.45"/>
      <stop offset="0.6" stop-color="#22d3ee" stop-opacity="0.08"/>
      <stop offset="1" stop-color="#22d3ee" stop-opacity="0"/>
    </radialGradient>
    <linearGradient id="tile" x1="0" y1="0" x2="0" y2="1">
      <stop offset="0" stop-color="#18234a"/><stop offset="1" stop-color="#0f1734"/>
    </linearGradient>
    <linearGradient id="edge" x1="0" y1="0" x2="1" y2="1">
      <stop offset="0" stop-color="#8b7dff"/><stop offset="1" stop-color="#22d3ee"/>
    </linearGradient>
    <linearGradient id="wire" x1="0" y1="0" x2="1" y2="0">
      <stop offset="0" stop-color="#8b7dff"/><stop offset="1" stop-color="#22d3ee"/>
    </linearGradient>
    <filter id="soft" x="-30%" y="-30%" width="160%" height="160%">
      <feGaussianBlur stdDeviation="6"/>
    </filter>
    <marker id="arrow" viewBox="0 0 10 10" refX="8" refY="5" markerWidth="7" markerHeight="7" orient="auto">
      <path d="M0 0L10 5L0 10z" fill="#22d3ee"/>
    </marker>

    <!-- Iconos (caja 64x64) -->
    <symbol id="i-claude" viewBox="0 0 64 64">
      <g stroke="#D97757" stroke-width="5.5" stroke-linecap="round"><line x1="36.8" y1="33.3" x2="55.2" y2="38.2"/><line x1="35.5" y1="35.5" x2="44.0" y2="44.0"/><line x1="33.3" y1="36.8" x2="38.2" y2="55.2"/><line x1="30.7" y1="36.8" x2="27.6" y2="48.4"/><line x1="28.5" y1="35.5" x2="15.0" y2="49.0"/><line x1="27.2" y1="33.3" x2="15.6" y2="36.4"/><line x1="27.2" y1="30.7" x2="8.8" y2="25.8"/><line x1="28.5" y1="28.5" x2="20.0" y2="20.0"/><line x1="30.7" y1="27.2" x2="25.8" y2="8.8"/><line x1="33.3" y1="27.2" x2="36.4" y2="15.6"/><line x1="35.5" y1="28.5" x2="49.0" y2="15.0"/><line x1="36.8" y1="30.7" x2="48.4" y2="27.6"/></g>
    </symbol>
    <symbol id="i-figma" viewBox="0 0 64 64">
      <path d="M22 6h10v16H22a8 8 0 0 1 0-16z" fill="#F24E1E"/>
      <path d="M32 6h10a8 8 0 0 1 0 16H32z" fill="#FF7262"/>
      <path d="M22 22h10v16H22a8 8 0 0 1 0-16z" fill="#A259FF"/>
      <circle cx="42" cy="30" r="8" fill="#1ABCFE"/>
      <path d="M22 38h10v8a8 8 0 1 1-10-8z" fill="#0ACF83"/>
    </symbol>
    <symbol id="i-git" viewBox="0 0 64 64">
      <rect x="11" y="11" width="42" height="42" rx="7" transform="rotate(45 32 32)" fill="#F05032"/>
      <g stroke="#fff" stroke-width="3.5" stroke-linecap="round" fill="none">
        <path d="M25 20L32 27V44"/><path d="M32 27L40 35"/>
      </g>
      <g fill="#fff"><circle cx="32" cy="27" r="3.6"/><circle cx="32" cy="44" r="3.6"/><circle cx="40.5" cy="35.5" r="3.6"/></g>
    </symbol>
    <symbol id="i-render" viewBox="0 0 64 64">
      <rect x="6" y="6" width="52" height="52" rx="12" fill="#fff"/>
      <path d="M22 46V30a12 12 0 0 1 12-12h8" fill="none" stroke="#0b1330" stroke-width="7" stroke-linecap="round"/>
      <rect x="37" y="37" width="9" height="9" rx="2" fill="#0b1330"/>
    </symbol>
    <linearGradient id="astro-flame" x1="0" y1="0" x2="1" y2="1">
      <stop offset="0" stop-color="#D83333"/><stop offset="1" stop-color="#F041FF"/>
    </linearGradient>
    <symbol id="i-astro" viewBox="0 0 64 64">
      <path d="M15 46L26.6 11.8C28 7.6 36 7.6 37.4 11.8L49 46C44.8 43.4 40.6 42.2 36.2 41.8L32 29L27.8 41.8C23.4 42.2 19.2 43.4 15 46Z" fill="#F2F4FF"/>
      <path d="M22 47C22 53 26.5 56.5 32 61C30.8 57.2 33.2 54.6 37 53.2C41 51.6 42.6 49.6 42 47C37.2 50 27 50 22 47Z" fill="url(#astro-flame)"/>
    </symbol>
    <symbol id="i-html" viewBox="0 0 64 64">
      <path d="M10 6h44l-4 46-18 6-18-6z" fill="#E34F26"/>
      <path d="M32 10v44l14-4.6L49.5 10z" fill="#EF652A"/>
      <path d="M21 17h22l-.6 6H27.5l.5 6h14l-1.2 13.5L32 45l-8.8-2.5-.6-7h5.6l.3 3.3L32 40l3.4-1.2.4-4.8H22.8z" fill="#fff"/>
    </symbol>
    <symbol id="i-css" viewBox="0 0 64 64">
      <path d="M10 6h44l-4 46-18 6-18-6z" fill="#1572B6"/>
      <path d="M32 10v44l14-4.6L49.5 10z" fill="#33A9DC"/>
      <path d="M21 17h22l-.6 6-8.2 4.6h7.8l-1.3 14.9L32 45l-8.8-2.5-.6-7h5.6l.3 3.3L32 40l3.4-1.2.5-6.3H25.8l-.4-4.9 8.2-4.6H21.5z" fill="#fff"/>
    </symbol>
  </defs>
  <rect width="800" height="600" fill="url(#bg)"/>
  <rect width="800" height="600" fill="url(#grid)" opacity="0.55"/>
  <path d="M120 110 C185.0 110 185.0 210 250 210" fill="none" stroke="url(#wire)" stroke-width="6" opacity="0.18" filter="url(#soft)"/>
  <path d="M120 110 C185.0 110 185.0 210 250 210" fill="none" stroke="url(#wire)" stroke-width="1.6" stroke-dasharray="4 6" opacity="0.9"/>
  <circle cx="250" cy="210" r="4" fill="#22d3ee"/>
  <path d="M680 110 C615.0 110 615.0 210 550 210" fill="none" stroke="url(#wire)" stroke-width="6" opacity="0.18" filter="url(#soft)"/>
  <path d="M680 110 C615.0 110 615.0 210 550 210" fill="none" stroke="url(#wire)" stroke-width="1.6" stroke-dasharray="4 6" opacity="0.9"/>
  <circle cx="550" cy="210" r="4" fill="#22d3ee"/>
  <path d="M96 300 C173.0 300 173.0 285.0 250 285.0" fill="none" stroke="url(#wire)" stroke-width="6" opacity="0.18" filter="url(#soft)"/>
  <path d="M96 300 C173.0 300 173.0 285.0 250 285.0" fill="none" stroke="url(#wire)" stroke-width="1.6" stroke-dasharray="4 6" opacity="0.9"/>
  <circle cx="250" cy="285.0" r="4" fill="#22d3ee"/>
  <path d="M704 300 C627.0 300 627.0 285.0 550 285.0" fill="none" stroke="url(#wire)" stroke-width="6" opacity="0.18" filter="url(#soft)"/>
  <path d="M704 300 C627.0 300 627.0 285.0 550 285.0" fill="none" stroke="url(#wire)" stroke-width="1.6" stroke-dasharray="4 6" opacity="0.9"/>
  <circle cx="550" cy="285.0" r="4" fill="#22d3ee"/>
  <path d="M150 490 C220.0 490 220.0 400 290 400" fill="none" stroke="url(#wire)" stroke-width="6" opacity="0.18" filter="url(#soft)"/>
  <path d="M150 490 C220.0 490 220.0 400 290 400" fill="none" stroke="url(#wire)" stroke-width="1.6" stroke-dasharray="4 6" opacity="0.9"/>
  <circle cx="290" cy="400" r="4" fill="#22d3ee"/>
  <path d="M650 490 C580.0 490 580.0 400 510 400" fill="none" stroke="url(#wire)" stroke-width="6" opacity="0.18" filter="url(#soft)"/>
  <path d="M650 490 C580.0 490 580.0 400 510 400" fill="none" stroke="url(#wire)" stroke-width="1.6" stroke-dasharray="4 6" opacity="0.9"/>
  <circle cx="510" cy="400" r="4" fill="#22d3ee"/>
  <path d="M400 64 C400.0 64 400.0 170 400 170" fill="none" stroke="#22d3ee" stroke-width="6" opacity="0.18" filter="url(#soft)"/>
  <path d="M400 64 C400.0 64 400.0 170 400 170" fill="none" stroke="#22d3ee" stroke-width="1.6" stroke-dasharray="4 6" opacity="0.9"/>
  <circle cx="400" cy="170" r="4" fill="#22d3ee"/>
  <ellipse cx="400" cy="290" rx="300" ry="220" fill="url(#glow)"/>
  <ellipse cx="400" cy="436" rx="190" ry="22" fill="#6d5dfc" opacity="0.25" filter="url(#soft)"/>
  <g>
    <rect x="256" y="184" width="300" height="230" rx="16" fill="#000" opacity="0.45" filter="url(#soft)"/>
    <rect x="250" y="170" width="300" height="230" rx="16" fill="#0f1836" stroke="url(#edge)" stroke-width="2"/>
    <path d="M250 186a16 16 0 0 1 16-16h268a16 16 0 0 1 16 16v18H250z" fill="#18234a"/>
    <circle cx="270" cy="187" r="4.5" fill="#ff5f57"/><circle cx="286" cy="187" r="4.5" fill="#febc2e"/><circle cx="302" cy="187" r="4.5" fill="#28c840"/>
    <rect x="322" y="180" width="208" height="14" rx="7" fill="#0b1330"/>
    <text x="334" y="191" font-family="ui-monospace, SFMono-Regular, Menlo, monospace" font-size="9.5" fill="#6f83b8">vonmoix.github.io/CMS</text>
    <rect x="272" y="226" width="44" height="7" rx="3.5" fill="#8b7dff"/>
    <rect x="272" y="242" width="150" height="14" rx="4" fill="#e6ebff"/>
    <rect x="272" y="262" width="118" height="14" rx="4" fill="#e6ebff"/>
    <rect x="272" y="286" width="140" height="6" rx="3" fill="#4a5c92"/>
    <rect x="272" y="298" width="110" height="6" rx="3" fill="#4a5c92"/>
    <rect x="272" y="316" width="64" height="20" rx="10" fill="url(#wire)"/>
    <rect x="436" y="226" width="92" height="110" rx="10" fill="#18234a" stroke="#2c3d74"/>
    <circle cx="482" cy="268" r="22" fill="none" stroke="#22d3ee" stroke-width="2" opacity="0.8"/>
    <path d="M448 326l24-26 16 14 14-12 16 24z" fill="#6d5dfc" opacity="0.7"/>
    <rect x="272" y="352" width="80" height="30" rx="8" fill="#18234a"/>
    <rect x="360" y="352" width="80" height="30" rx="8" fill="#18234a"/>
    <rect x="448" y="352" width="80" height="30" rx="8" fill="#18234a"/>
  </g>
  <g>
    <rect x="76.0" y="70.0" width="96" height="96" rx="22" fill="#000" opacity="0.35" filter="url(#soft)"/>
    <rect x="72.0" y="62.0" width="96" height="96" rx="22" fill="url(#tile)" stroke="url(#edge)" stroke-opacity="0.7" stroke-width="1.5"/>
    <rect x="73.5" y="63.5" width="93" height="48.0" rx="20" fill="#fff" opacity="0.04"/>
    <use href="#i-claude" x="92" y="82" width="56" height="56"/>
  </g>
  <text x="120" y="180.0" text-anchor="middle" font-family="ui-monospace, SFMono-Regular, Menlo, monospace" font-size="13" fill="#8fa3d6">Claude</text>
  <g>
    <rect x="636.0" y="70.0" width="96" height="96" rx="22" fill="#000" opacity="0.35" filter="url(#soft)"/>
    <rect x="632.0" y="62.0" width="96" height="96" rx="22" fill="url(#tile)" stroke="url(#edge)" stroke-opacity="0.7" stroke-width="1.5"/>
    <rect x="633.5" y="63.5" width="93" height="48.0" rx="20" fill="#fff" opacity="0.04"/>
    <use href="#i-figma" x="652" y="82" width="56" height="56"/>
  </g>
  <text x="680" y="180.0" text-anchor="middle" font-family="ui-monospace, SFMono-Regular, Menlo, monospace" font-size="13" fill="#8fa3d6">Figma</text>
  <g>
    <rect x="52.0" y="260.0" width="96" height="96" rx="22" fill="#000" opacity="0.35" filter="url(#soft)"/>
    <rect x="48.0" y="252.0" width="96" height="96" rx="22" fill="url(#tile)" stroke="url(#edge)" stroke-opacity="0.7" stroke-width="1.5"/>
    <rect x="49.5" y="253.5" width="93" height="48.0" rx="20" fill="#fff" opacity="0.04"/>
    <use href="#i-git" x="68" y="272" width="56" height="56"/>
  </g>
  <text x="96" y="370.0" text-anchor="middle" font-family="ui-monospace, SFMono-Regular, Menlo, monospace" font-size="13" fill="#8fa3d6">Git</text>
  <g>
    <rect x="660.0" y="260.0" width="96" height="96" rx="22" fill="#000" opacity="0.35" filter="url(#soft)"/>
    <rect x="656.0" y="252.0" width="96" height="96" rx="22" fill="url(#tile)" stroke="url(#edge)" stroke-opacity="0.7" stroke-width="1.5"/>
    <rect x="657.5" y="253.5" width="93" height="48.0" rx="20" fill="#fff" opacity="0.04"/>
    <use href="#i-render" x="676" y="272" width="56" height="56"/>
  </g>
  <text x="704" y="370.0" text-anchor="middle" font-family="ui-monospace, SFMono-Regular, Menlo, monospace" font-size="13" fill="#8fa3d6">Render</text>
  <g>
    <rect x="106.0" y="450.0" width="96" height="96" rx="22" fill="#000" opacity="0.35" filter="url(#soft)"/>
    <rect x="102.0" y="442.0" width="96" height="96" rx="22" fill="url(#tile)" stroke="url(#edge)" stroke-opacity="0.7" stroke-width="1.5"/>
    <rect x="103.5" y="443.5" width="93" height="48.0" rx="20" fill="#fff" opacity="0.04"/>
    <use href="#i-html" x="122" y="462" width="56" height="56"/>
  </g>
  <text x="150" y="560.0" text-anchor="middle" font-family="ui-monospace, SFMono-Regular, Menlo, monospace" font-size="13" fill="#8fa3d6">HTML</text>
  <g>
    <rect x="606.0" y="450.0" width="96" height="96" rx="22" fill="#000" opacity="0.35" filter="url(#soft)"/>
    <rect x="602.0" y="442.0" width="96" height="96" rx="22" fill="url(#tile)" stroke="url(#edge)" stroke-opacity="0.7" stroke-width="1.5"/>
    <rect x="603.5" y="443.5" width="93" height="48.0" rx="20" fill="#fff" opacity="0.04"/>
    <use href="#i-css" x="622" y="462" width="56" height="56"/>
  </g>
  <text x="650" y="560.0" text-anchor="middle" font-family="ui-monospace, SFMono-Regular, Menlo, monospace" font-size="13" fill="#8fa3d6">CSS</text>
  <g>
    <rect x="356.0" y="24.0" width="96" height="96" rx="22" fill="#000" opacity="0.35" filter="url(#soft)"/>
    <rect x="352.0" y="16.0" width="96" height="96" rx="22" fill="url(#tile)" stroke="url(#edge)" stroke-opacity="0.7" stroke-width="1.5"/>
    <rect x="353.5" y="17.5" width="93" height="48.0" rx="20" fill="#fff" opacity="0.04"/>
    <use href="#i-astro" x="372" y="36" width="56" height="56"/>
  </g>
  <text x="462.0" y="69" font-family="ui-monospace, SFMono-Regular, Menlo, monospace" font-size="13" fill="#8fa3d6">Astro</text>
  <circle cx="300" cy="80" r="2" fill="#22d3ee" opacity="0.7"/><circle cx="520" cy="70" r="1.5" fill="#22d3ee" opacity="0.6"/><circle cx="250" cy="560" r="1.6" fill="#22d3ee" opacity="0.5"/><circle cx="560" cy="560" r="2" fill="#22d3ee" opacity="0.6"/><circle cx="40" cy="180" r="1.4" fill="#22d3ee" opacity="0.5"/><circle cx="770" cy="420" r="1.6" fill="#22d3ee" opacity="0.5"/><circle cx="400" cy="540" r="1.2" fill="#22d3ee" opacity="0.4"/>
</svg>
